<?xml version="1.0" encoding="UTF-8" standalone="yes"?>
<svg xmlns="http://www.w3.org/2000/svg" xmlns:xlink="http://www.w3.org/1999/xlink" width="321" zoomAndPan="magnify" viewBox="0 0 240.75 141.750002" height="188" preserveAspectRatio="xMidYMid meet" version="1.0">
  <defs>
    <g/>
    <clipPath id="2a0fc7549d">
      <path d="M 60.324219 57.21875 L 72.460938 57.21875 L 72.460938 58.222656 L 60.324219 58.222656 Z M 65.835938 58.222656 L 66.945312 58.222656 L 66.945312 72.523438 L 65.835938 72.523438 Z M 65.835938 58.222656 " clip-rule="nonzero"/>
    </clipPath>
    <clipPath id="66b4cb8f73">
      <path d="M 59.410156 56.308594 L 73.371094 56.308594 L 73.371094 59.132812 L 59.410156 59.132812 Z M 64.925781 59.132812 L 67.859375 59.132812 L 67.859375 73.4375 L 64.925781 73.4375 Z M 64.925781 59.132812 " clip-rule="nonzero"/>
    </clipPath>
    <clipPath id="73e3cc7a58">
      <path d="M 78.242188 57.195312 L 90.222656 57.195312 L 90.222656 72.527344 L 78.242188 72.527344 Z M 78.242188 57.195312 " clip-rule="nonzero"/>
    </clipPath>
    <clipPath id="bf33bc70b9">
      <path d="M 86.328125 67.175781 C 87.472656 66.847656 88.363281 66.28125 88.964844 65.445312 C 89.566406 64.609375 89.910156 63.605469 89.910156 62.386719 C 89.910156 60.785156 89.367188 59.511719 88.273438 58.601562 C 87.183594 57.691406 85.671875 57.21875 83.742188 57.21875 L 78.246094 57.21875 L 78.246094 58.222656 L 83.742188 58.222656 C 85.363281 58.222656 86.617188 58.585938 87.492188 59.3125 C 88.347656 60.039062 88.785156 61.058594 88.785156 62.371094 C 88.785156 63.699219 88.347656 64.734375 87.492188 65.464844 C 86.617188 66.191406 85.363281 66.539062 83.742188 66.539062 L 78.246094 66.539062 L 78.246094 72.523438 L 79.355469 72.523438 L 79.355469 67.519531 L 83.726562 67.519531 C 84.160156 67.519531 84.671875 67.5 85.21875 67.410156 L 88.875 72.523438 L 90.148438 72.523438 Z M 86.328125 67.175781 " clip-rule="nonzero"/>
    </clipPath>
    <clipPath id="5dbc4a9516">
      <path d="M 77.332031 56.296875 L 92 56.296875 L 92 73.5 L 77.332031 73.5 Z M 77.332031 56.296875 " clip-rule="nonzero"/>
    </clipPath>
    <clipPath id="b604a3f3d3">
      <path d="M 86.074219 66.296875 C 87.074219 66.011719 87.769531 65.546875 88.226562 64.914062 C 88.710938 64.234375 89 63.417969 89 62.386719 L 89.910156 62.386719 L 89 62.386719 C 89 61.015625 88.542969 60.015625 87.691406 59.304688 L 88.273438 58.601562 L 87.691406 59.304688 C 86.808594 58.570312 85.527344 58.132812 83.742188 58.132812 L 78.246094 58.132812 L 78.246094 57.21875 L 79.160156 57.21875 L 79.160156 58.222656 L 78.246094 58.222656 L 78.246094 57.308594 L 83.742188 57.308594 L 83.742188 58.222656 L 83.742188 57.308594 C 85.484375 57.308594 86.980469 57.699219 88.074219 58.613281 L 88.082031 58.621094 C 89.171875 59.546875 89.695312 60.835938 89.695312 62.371094 L 88.785156 62.371094 L 89.695312 62.371094 C 89.695312 63.917969 89.175781 65.230469 88.082031 66.160156 L 88.074219 66.167969 C 86.976562 67.085938 85.476562 67.453125 83.742188 67.453125 L 78.246094 67.453125 L 78.246094 66.539062 L 79.160156 66.539062 L 79.160156 72.523438 L 78.246094 72.523438 L 78.246094 71.613281 L 79.355469 71.613281 L 79.355469 72.523438 L 78.445312 72.523438 L 78.445312 66.609375 L 83.726562 66.609375 L 83.726562 67.519531 L 83.726562 66.609375 C 84.136719 66.609375 84.589844 66.589844 85.066406 66.511719 L 85.628906 66.417969 L 89.617188 71.996094 L 88.875 72.523438 L 88.875 71.613281 L 90.148438 71.613281 L 90.148438 72.523438 L 89.40625 73.054688 L 84.835938 66.652344 L 86.078125 66.296875 M 86.578125 68.050781 L 86.328125 67.171875 L 87.070312 66.644531 L 91.921875 73.4375 L 88.40625 73.4375 L 84.476562 67.941406 L 85.21875 67.414062 L 85.367188 68.3125 C 84.75 68.414062 84.183594 68.433594 83.726562 68.433594 L 79.355469 68.433594 L 79.355469 67.519531 L 80.269531 67.519531 L 80.269531 73.4375 L 77.335938 73.4375 L 77.335938 65.625 L 83.742188 65.625 C 85.25 65.625 86.261719 65.300781 86.90625 64.761719 L 87.492188 65.464844 L 86.898438 64.769531 C 87.515625 64.246094 87.871094 63.480469 87.871094 62.371094 C 87.871094 61.285156 87.519531 60.535156 86.898438 60.007812 L 87.492188 59.3125 L 86.90625 60.011719 C 86.257812 59.46875 85.238281 59.128906 83.742188 59.128906 L 77.335938 59.128906 L 77.335938 56.308594 L 83.742188 56.308594 C 85.816406 56.308594 87.558594 56.816406 88.859375 57.902344 C 90.1875 59.011719 90.824219 60.558594 90.824219 62.386719 C 90.824219 63.792969 90.417969 64.980469 89.707031 65.976562 L 88.964844 65.445312 L 89.707031 65.976562 C 88.960938 67.019531 87.871094 67.679688 86.578125 68.050781 Z M 86.578125 68.050781 " clip-rule="nonzero"/>
    </clipPath>
    <clipPath id="14f6444fc7">
      <path d="M 94.398438 57.195312 L 109.828125 57.195312 L 109.828125 72.601562 L 94.398438 72.601562 Z M 94.398438 57.195312 " clip-rule="nonzero"/>
    </clipPath>
    <clipPath id="70d3611791">
      <path d="M 102.648438 57.21875 L 101.539062 57.21875 L 94.496094 72.542969 L 95.699219 72.542969 L 102.085938 58.457031 L 108.492188 72.542969 L 109.691406 72.542969 Z M 102.648438 57.21875 " clip-rule="nonzero"/>
    </clipPath>
    <clipPath id="8cf9ea86c7">
      <path d="M 93 56.222656 L 111.28125 56.222656 L 111.28125 73.5 L 93 73.5 Z M 93 56.222656 " clip-rule="nonzero"/>
    </clipPath>
    <clipPath id="145f7cdf2d">
      <path d="M 102.648438 58.132812 L 101.539062 58.132812 L 101.539062 57.21875 L 102.367188 57.601562 L 95.324219 72.921875 L 94.496094 72.542969 L 94.496094 71.628906 L 95.699219 71.628906 L 95.699219 72.542969 L 94.867188 72.164062 L 102.085938 56.25 L 109.320312 72.164062 L 108.492188 72.539062 L 108.492188 71.628906 L 109.691406 71.628906 L 109.691406 72.542969 L 108.863281 72.921875 L 101.820312 57.601562 L 102.648438 57.21875 L 102.648438 58.132812 M 102.648438 56.308594 L 103.234375 56.308594 L 111.117188 73.453125 L 107.902344 73.453125 L 101.257812 58.835938 L 102.085938 58.457031 L 102.914062 58.835938 L 96.285156 73.453125 L 93.074219 73.453125 L 100.957031 56.308594 Z M 102.648438 56.308594 " clip-rule="nonzero"/>
    </clipPath>
    <clipPath id="bd73912b87">
      <path d="M 113.820312 57.121094 L 125.074219 57.121094 L 125.074219 72.679688 L 113.820312 72.679688 Z M 113.820312 57.121094 " clip-rule="nonzero"/>
    </clipPath>
    <clipPath id="9ccacbc892">
      <path d="M 116.335938 72.085938 C 117.335938 72.488281 118.410156 72.652344 119.554688 72.652344 C 120.757812 72.652344 121.792969 72.46875 122.613281 72.105469 C 123.449219 71.761719 124.050781 71.25 124.449219 70.632812 C 124.851562 70.011719 125.070312 69.339844 125.070312 68.59375 C 125.070312 67.703125 124.832031 66.972656 124.34375 66.445312 C 123.867188 65.917969 123.285156 65.5 122.632812 65.246094 C 121.957031 64.992188 121.046875 64.71875 119.9375 64.445312 C 118.9375 64.207031 118.117188 63.972656 117.554688 63.753906 C 116.972656 63.535156 116.480469 63.226562 116.082031 62.808594 C 115.679688 62.40625 115.496094 61.859375 115.496094 61.167969 C 115.496094 60.277344 115.84375 59.53125 116.589844 58.96875 C 117.316406 58.402344 118.390625 58.113281 119.8125 58.113281 C 120.503906 58.113281 121.230469 58.222656 121.976562 58.4375 C 122.722656 58.65625 123.394531 58.984375 124.015625 59.402344 L 124.433594 58.511719 C 123.8125 58.09375 123.121094 57.765625 122.304688 57.511719 C 121.464844 57.273438 120.648438 57.148438 119.8125 57.148438 C 118.589844 57.148438 117.574219 57.347656 116.773438 57.691406 C 115.972656 58.058594 115.371094 58.566406 114.96875 59.183594 C 114.570312 59.804688 114.386719 60.476562 114.386719 61.222656 C 114.386719 62.152344 114.605469 62.878906 115.078125 63.425781 C 115.550781 63.972656 116.132812 64.371094 116.808594 64.625 C 117.480469 64.882812 118.390625 65.171875 119.519531 65.425781 C 120.503906 65.664062 121.285156 65.882812 121.886719 66.101562 C 122.449219 66.320312 122.957031 66.644531 123.359375 67.046875 C 123.757812 67.464844 123.941406 68.011719 123.941406 68.683594 C 123.941406 69.578125 123.578125 70.304688 122.832031 70.851562 C 122.085938 71.414062 120.976562 71.6875 119.519531 71.6875 C 118.519531 71.6875 117.554688 71.503906 116.625 71.160156 C 115.699219 70.8125 114.988281 70.324219 114.460938 69.757812 L 113.949219 70.59375 C 114.535156 71.175781 115.316406 71.6875 116.335938 72.085938 " clip-rule="nonzero"/>
    </clipPath>
    <clipPath id="c9b380517c">
      <path d="M 112.730469 56.222656 L 125.984375 56.222656 L 125.984375 73.574219 L 112.730469 73.574219 Z M 112.730469 56.222656 " clip-rule="nonzero"/>
    </clipPath>
    <clipPath id="e76852ffac">
      <path d="M 116.671875 71.242188 C 117.542969 71.589844 118.496094 71.738281 119.554688 71.738281 L 119.554688 72.652344 L 119.554688 71.738281 C 120.671875 71.738281 121.574219 71.570312 122.242188 71.273438 L 122.253906 71.265625 L 122.265625 71.261719 C 122.945312 70.980469 123.394531 70.585938 123.6875 70.136719 C 124 69.652344 124.160156 69.148438 124.160156 68.589844 L 125.070312 68.589844 L 124.160156 68.589844 C 124.160156 67.859375 123.96875 67.378906 123.675781 67.066406 L 123.671875 67.058594 L 123.664062 67.054688 C 123.277344 66.625 122.8125 66.292969 122.300781 66.09375 L 122.632812 65.242188 L 122.3125 66.097656 C 121.683594 65.859375 120.8125 65.597656 119.722656 65.328125 L 119.941406 64.441406 L 119.730469 65.332031 C 118.71875 65.089844 117.851562 64.84375 117.226562 64.601562 L 117.558594 63.753906 L 117.234375 64.605469 C 116.539062 64.347656 115.929688 63.96875 115.421875 63.4375 L 116.082031 62.808594 L 115.4375 63.449219 C 114.816406 62.832031 114.585938 62.023438 114.585938 61.167969 L 115.496094 61.167969 L 114.585938 61.167969 C 114.585938 60.003906 115.058594 58.984375 116.039062 58.238281 L 116.589844 58.96875 L 116.03125 58.246094 C 116.980469 57.507812 118.285156 57.199219 119.8125 57.199219 L 119.8125 58.113281 L 119.8125 57.199219 C 120.597656 57.199219 121.410156 57.324219 122.234375 57.5625 L 121.976562 58.4375 L 122.234375 57.5625 C 123.074219 57.808594 123.835938 58.179688 124.527344 58.648438 L 124.015625 59.402344 L 123.1875 59.015625 L 123.605469 58.125 L 124.433594 58.511719 L 123.921875 59.265625 C 123.382812 58.902344 122.773438 58.613281 122.03125 58.382812 L 122.304688 57.511719 L 122.054688 58.386719 C 121.289062 58.171875 120.554688 58.058594 119.8125 58.058594 C 118.6875 58.058594 117.796875 58.246094 117.132812 58.53125 L 116.773438 57.691406 L 117.148438 58.523438 C 116.484375 58.824219 116.027344 59.226562 115.734375 59.679688 C 115.4375 60.140625 115.296875 60.636719 115.296875 61.222656 L 114.386719 61.222656 L 115.296875 61.222656 C 115.296875 62.007812 115.480469 62.5 115.765625 62.828125 L 115.078125 63.425781 L 115.765625 62.828125 C 116.136719 63.257812 116.59375 63.570312 117.128906 63.773438 C 117.765625 64.015625 118.632812 64.292969 119.71875 64.539062 L 119.726562 64.539062 L 119.730469 64.542969 C 120.722656 64.78125 121.542969 65.011719 122.195312 65.246094 L 122.210938 65.253906 C 122.886719 65.515625 123.507812 65.910156 124 66.40625 L 124.007812 66.410156 L 124.015625 66.417969 C 124.617188 67.046875 124.851562 67.839844 124.851562 68.6875 L 123.941406 68.6875 L 124.851562 68.6875 C 124.851562 69.871094 124.347656 70.871094 123.367188 71.585938 L 122.828125 70.851562 L 123.378906 71.578125 C 122.402344 72.316406 121.0625 72.601562 119.519531 72.601562 C 118.402344 72.601562 117.332031 72.398438 116.304688 72.015625 L 116.625 71.164062 L 116.304688 72.015625 C 115.253906 71.625 114.421875 71.054688 113.792969 70.382812 L 114.457031 69.761719 L 115.238281 70.234375 L 114.726562 71.070312 L 113.949219 70.597656 L 114.59375 69.953125 C 115.074219 70.433594 115.746094 70.882812 116.667969 71.242188 L 116.667969 71.246094 M 115.992188 72.9375 L 116.332031 72.09375 L 116 72.941406 C 114.882812 72.503906 113.988281 71.929688 113.304688 71.246094 L 112.796875 70.738281 L 114.304688 68.265625 L 115.125 69.140625 C 115.550781 69.597656 116.140625 70.011719 116.941406 70.3125 C 117.773438 70.621094 118.628906 70.78125 119.519531 70.78125 C 120.886719 70.78125 121.761719 70.519531 122.28125 70.128906 L 122.289062 70.121094 C 122.804688 69.746094 123.027344 69.289062 123.027344 68.691406 C 123.027344 68.191406 122.898438 67.894531 122.699219 67.683594 L 123.355469 67.054688 L 122.714844 67.699219 C 122.40625 67.390625 122.007812 67.132812 121.554688 66.957031 L 121.882812 66.109375 L 121.570312 66.964844 C 121.019531 66.765625 120.277344 66.554688 119.304688 66.320312 L 119.519531 65.433594 L 119.316406 66.324219 C 118.148438 66.058594 117.195312 65.757812 116.484375 65.488281 L 116.804688 64.632812 L 116.484375 65.488281 C 115.671875 65.179688 114.960938 64.695312 114.390625 64.03125 C 113.730469 63.265625 113.476562 62.300781 113.476562 61.230469 C 113.476562 60.324219 113.699219 59.476562 114.203125 58.699219 L 114.96875 59.191406 L 114.203125 58.699219 C 114.710938 57.914062 115.453125 57.296875 116.394531 56.871094 L 116.402344 56.867188 L 116.40625 56.863281 C 117.347656 56.449219 118.496094 56.234375 119.8125 56.234375 C 120.742188 56.234375 121.644531 56.378906 122.550781 56.632812 L 122.574219 56.640625 C 123.46875 56.917969 124.242188 57.285156 124.941406 57.757812 L 125.589844 58.195312 L 124.386719 60.753906 L 123.503906 60.160156 C 122.957031 59.789062 122.371094 59.503906 121.71875 59.316406 C 121.046875 59.117188 120.40625 59.023438 119.8125 59.023438 C 118.496094 59.023438 117.652344 59.296875 117.148438 59.6875 L 117.140625 59.695312 C 116.632812 60.082031 116.410156 60.550781 116.410156 61.167969 C 116.410156 61.695312 116.546875 61.980469 116.726562 62.164062 L 116.734375 62.167969 L 116.742188 62.175781 C 117.035156 62.484375 117.40625 62.722656 117.875 62.898438 L 117.878906 62.902344 L 117.882812 62.902344 C 118.390625 63.101562 119.164062 63.324219 120.148438 63.558594 L 120.152344 63.558594 L 120.15625 63.5625 C 121.285156 63.839844 122.234375 64.121094 122.953125 64.394531 L 122.957031 64.398438 L 122.960938 64.398438 C 123.757812 64.710938 124.457031 65.214844 125.019531 65.839844 L 124.339844 66.449219 L 125.007812 65.828125 C 125.699219 66.570312 125.980469 67.546875 125.980469 68.597656 C 125.980469 69.535156 125.703125 70.375 125.214844 71.128906 L 124.449219 70.636719 L 125.214844 71.128906 C 124.707031 71.917969 123.953125 72.539062 122.960938 72.953125 L 122.613281 72.109375 L 122.984375 72.941406 C 122.011719 73.375 120.839844 73.566406 119.554688 73.566406 C 118.320312 73.566406 117.128906 73.390625 115.996094 72.9375 Z M 115.992188 72.9375 " clip-rule="nonzero"/>
    </clipPath>
    <clipPath id="d1511a4b18">
      <path d="M 143.25 57.21875 L 144.359375 57.21875 L 144.359375 64.261719 L 143.25 64.261719 Z M 131.894531 57.21875 L 133.003906 57.21875 L 133.003906 64.261719 L 131.894531 64.261719 Z M 131.894531 64.261719 L 144.359375 64.261719 L 144.359375 65.261719 L 131.894531 65.261719 Z M 131.894531 65.261719 L 133.003906 65.261719 L 133.003906 72.542969 L 131.894531 72.542969 Z M 143.25 65.261719 L 144.359375 65.261719 L 144.359375 72.542969 L 143.25 72.542969 Z M 143.25 65.261719 " clip-rule="nonzero"/>
    </clipPath>
    <clipPath id="96e77dad72">
      <path d="M 142.335938 56.308594 L 145.269531 56.308594 L 145.269531 63.351562 L 142.335938 63.351562 Z M 130.980469 56.308594 L 133.914062 56.308594 L 133.914062 63.351562 L 130.980469 63.351562 Z M 130.980469 63.351562 L 145.269531 63.351562 L 145.269531 66.175781 L 130.980469 66.175781 Z M 130.980469 66.175781 L 133.914062 66.175781 L 133.914062 73.453125 L 130.980469 73.453125 Z M 142.335938 66.175781 L 145.269531 66.175781 L 145.269531 73.453125 L 142.335938 73.453125 Z M 142.335938 66.175781 " clip-rule="nonzero"/>
    </clipPath>
    <clipPath id="702da5f41e">
      <path d="M 152.75 57.21875 L 162.667969 57.21875 L 162.667969 58.222656 L 152.75 58.222656 Z M 152.75 64.261719 L 162.667969 64.261719 L 162.667969 65.246094 L 152.75 65.246094 Z M 152.75 71.542969 L 162.667969 71.542969 L 162.667969 72.542969 L 152.75 72.542969 Z M 152.75 71.542969 " clip-rule="nonzero"/>
    </clipPath>
    <clipPath id="5626f690c3">
      <path d="M 151.835938 56.308594 L 163.578125 56.308594 L 163.578125 59.132812 L 151.835938 59.132812 Z M 151.835938 63.351562 L 163.578125 63.351562 L 163.578125 66.15625 L 151.835938 66.15625 Z M 151.835938 70.628906 L 163.578125 70.628906 L 163.578125 73.453125 L 151.835938 73.453125 Z M 151.835938 70.628906 " clip-rule="nonzero"/>
    </clipPath>
    <clipPath id="4c6f1441a7">
      <path d="M 170.4375 57.21875 L 180.355469 57.21875 L 180.355469 58.222656 L 170.4375 58.222656 Z M 170.4375 64.261719 L 180.355469 64.261719 L 180.355469 65.246094 L 170.4375 65.246094 Z M 170.453125 71.542969 L 180.371094 71.542969 L 180.371094 72.542969 L 170.453125 72.542969 Z M 170.453125 71.542969 " clip-rule="nonzero"/>
    </clipPath>
    <clipPath id="d776557a64">
      <path d="M 169.523438 56.308594 L 181.265625 56.308594 L 181.265625 59.132812 L 169.523438 59.132812 Z M 169.523438 63.351562 L 181.265625 63.351562 L 181.265625 66.15625 L 169.523438 66.15625 Z M 169.542969 70.628906 L 181.285156 70.628906 L 181.285156 73.453125 L 169.542969 73.453125 Z M 169.542969 70.628906 " clip-rule="nonzero"/>
    </clipPath>
  </defs>
  <g fill="#000b17" fill-opacity="1">
    <g transform="translate(101.316587, 83.910083)">
      <g>
        <path d="M 2.859375 -2.148438 C 3.167969 -2.332031 3.367188 -2.710938 3.367188 -3.085938 C 3.367188 -3.6875 2.878906 -4.144531 2.203125 -4.144531 L 0.5625 -4.144531 L 0.5625 0 L 2.21875 0 C 2.9375 0 3.476562 -0.496094 3.476562 -1.136719 C 3.476562 -1.59375 3.246094 -1.984375 2.859375 -2.148438 Z M 2.835938 -3.011719 C 2.835938 -2.671875 2.5625 -2.390625 2.191406 -2.390625 L 1.078125 -2.390625 L 1.078125 -3.636719 L 2.191406 -3.636719 C 2.550781 -3.636719 2.835938 -3.363281 2.835938 -3.011719 Z M 2.214844 -0.507812 L 1.078125 -0.507812 L 1.078125 -1.882812 L 2.21875 -1.882812 C 2.628906 -1.882812 2.941406 -1.585938 2.941406 -1.195312 C 2.941406 -0.800781 2.628906 -0.507812 2.214844 -0.507812 Z M 2.214844 -0.507812 "/>
      </g>
    </g>
  </g>
  <g fill="#000b17" fill-opacity="1">
    <g transform="translate(105.132155, 83.910083)">
      <g>
        <path d="M 3.742188 -4.144531 L 3.171875 -4.144531 L 1.949219 -2.136719 L 0.726562 -4.144531 L 0.160156 -4.144531 L 1.675781 -1.652344 L 1.675781 0 L 2.214844 0 L 2.214844 -1.652344 Z M 3.742188 -4.144531 "/>
      </g>
    </g>
  </g>
  <g fill="#000b17" fill-opacity="1">
    <g transform="translate(110.77747, 83.910076)">
      <g>
        <path d="M 2.035156 -4.144531 L 0.472656 -4.144531 L 0.472656 0 L 2.035156 0 C 3.257812 0 4.136719 -0.871094 4.136719 -2.070312 C 4.136719 -3.273438 3.257812 -4.144531 2.035156 -4.144531 Z M 2.019531 -0.828125 L 1.367188 -0.828125 L 1.367188 -3.308594 L 2.019531 -3.308594 C 2.730469 -3.308594 3.21875 -2.804688 3.21875 -2.070312 C 3.21875 -1.351562 2.730469 -0.828125 2.019531 -0.828125 Z M 2.019531 -0.828125 "/>
      </g>
    </g>
  </g>
  <g fill="#000b17" fill-opacity="1">
    <g transform="translate(115.16094, 83.910076)">
      <g>
        <path d="M 2.066406 -4.144531 L 0.472656 -4.144531 L 0.472656 0 L 1.367188 0 L 1.367188 -1.289062 L 2.066406 -1.289062 C 2.902344 -1.289062 3.527344 -1.902344 3.527344 -2.71875 C 3.527344 -3.535156 2.894531 -4.144531 2.066406 -4.144531 Z M 2.023438 -2.121094 L 1.367188 -2.121094 L 1.367188 -3.308594 L 2.023438 -3.308594 C 2.378906 -3.308594 2.621094 -3.0625 2.621094 -2.71875 C 2.621094 -2.375 2.378906 -2.121094 2.023438 -2.121094 Z M 2.023438 -2.121094 "/>
      </g>
    </g>
  </g>
  <g fill="#000b17" fill-opacity="1">
    <g transform="translate(118.840446, 83.910076)">
      <g>
        <path d="M 2.753906 0 L 3.753906 0 L 2.835938 -1.5625 C 3.296875 -1.789062 3.59375 -2.226562 3.59375 -2.769531 C 3.59375 -3.570312 2.972656 -4.144531 2.144531 -4.144531 L 0.472656 -4.144531 L 0.472656 0 L 1.367188 0 L 1.367188 -1.410156 L 1.941406 -1.410156 Z M 1.367188 -3.316406 L 2.082031 -3.316406 C 2.460938 -3.316406 2.683594 -3.085938 2.683594 -2.777344 C 2.683594 -2.460938 2.460938 -2.238281 2.082031 -2.238281 L 1.367188 -2.238281 Z M 1.367188 -3.316406 "/>
      </g>
    </g>
  </g>
  <g fill="#000b17" fill-opacity="1">
    <g transform="translate(122.750662, 83.910076)">
      <g>
        <path d="M 2.4375 0.09375 C 3.699219 0.09375 4.640625 -0.835938 4.640625 -2.070312 C 4.640625 -3.304688 3.699219 -4.234375 2.4375 -4.234375 C 1.171875 -4.234375 0.226562 -3.296875 0.226562 -2.070312 C 0.226562 -0.839844 1.171875 0.09375 2.4375 0.09375 Z M 2.4375 -0.75 C 1.699219 -0.75 1.136719 -1.324219 1.136719 -2.070312 C 1.136719 -2.816406 1.699219 -3.386719 2.4375 -3.386719 C 3.179688 -3.386719 3.730469 -2.824219 3.730469 -2.070312 C 3.730469 -1.320312 3.179688 -0.75 2.4375 -0.75 Z M 2.4375 -0.75 "/>
      </g>
    </g>
  </g>
  <g fill="#000b17" fill-opacity="1">
    <g transform="translate(127.619207, 83.910076)">
      <g>
        <path d="M 2.949219 -3.308594 L 2.949219 -4.144531 L 0.472656 -4.144531 L 0.472656 0 L 1.367188 0 L 1.367188 -1.585938 L 2.792969 -1.585938 L 2.792969 -2.398438 L 1.367188 -2.398438 L 1.367188 -3.308594 Z M 2.949219 -3.308594 "/>
      </g>
    </g>
  </g>
  <g fill="#000b17" fill-opacity="1">
    <g transform="translate(130.78406, 83.910076)">
      <g>
        <path d="M 0.472656 0 L 1.367188 0 L 1.367188 -4.144531 L 0.472656 -4.144531 Z M 0.472656 0 "/>
      </g>
    </g>
  </g>
  <g fill="#000b17" fill-opacity="1">
    <g transform="translate(132.629727, 83.910076)">
      <g>
        <path d="M 1.503906 -0.828125 L 3.214844 -3.976562 L 3.214844 -4.144531 L 0.25 -4.144531 L 0.25 -3.308594 L 1.882812 -3.308594 L 0.152344 -0.128906 L 0.152344 0 L 3.285156 0 L 3.285156 -0.828125 Z M 1.503906 -0.828125 "/>
      </g>
    </g>
  </g>
  <g clip-path="url(#2a0fc7549d)">
    <path fill="#3d8271" d="M 58.5 55.398438 L 74.28125 55.398438 L 74.28125 74.347656 L 58.5 74.347656 Z M 58.5 55.398438 " fill-opacity="1" fill-rule="nonzero"/>
  </g>
  <g clip-path="url(#66b4cb8f73)">
    <path fill="#3d8271" d="M 58.5 55.398438 L 74.28125 55.398438 L 74.28125 74.347656 L 58.5 74.347656 Z M 58.5 55.398438 " fill-opacity="1" fill-rule="nonzero"/>
  </g>
  <g clip-path="url(#73e3cc7a58)">
    <g clip-path="url(#bf33bc70b9)">
      <path fill="#3e8b66" d="M 76.425781 55.324219 L 126.890625 55.324219 L 126.890625 74.472656 L 76.425781 74.472656 Z M 76.425781 55.324219 " fill-opacity="1" fill-rule="nonzero"/>
    </g>
  </g>
  <g clip-path="url(#5dbc4a9516)">
    <g clip-path="url(#b604a3f3d3)">
      <path fill="#3e8b66" d="M 76.425781 55.324219 L 126.890625 55.324219 L 126.890625 74.472656 L 76.425781 74.472656 Z M 76.425781 55.324219 " fill-opacity="1" fill-rule="nonzero"/>
    </g>
  </g>
  <g clip-path="url(#14f6444fc7)">
    <g clip-path="url(#70d3611791)">
      <path fill="#3e945b" d="M 76.425781 55.324219 L 126.890625 55.324219 L 126.890625 74.472656 L 76.425781 74.472656 Z M 76.425781 55.324219 " fill-opacity="1" fill-rule="nonzero"/>
    </g>
  </g>
  <g clip-path="url(#8cf9ea86c7)">
    <g clip-path="url(#145f7cdf2d)">
      <path fill="#3e945b" d="M 76.425781 55.324219 L 126.890625 55.324219 L 126.890625 74.472656 L 76.425781 74.472656 Z M 76.425781 55.324219 " fill-opacity="1" fill-rule="nonzero"/>
    </g>
  </g>
  <g clip-path="url(#bd73912b87)">
    <g clip-path="url(#9ccacbc892)">
      <path fill="#3f9d51" d="M 76.425781 55.324219 L 126.890625 55.324219 L 126.890625 74.472656 L 76.425781 74.472656 Z M 76.425781 55.324219 " fill-opacity="1" fill-rule="nonzero"/>
    </g>
  </g>
  <g clip-path="url(#c9b380517c)">
    <g clip-path="url(#e76852ffac)">
      <path fill="#3f9d51" d="M 76.425781 55.324219 L 126.890625 55.324219 L 126.890625 74.472656 L 76.425781 74.472656 Z M 76.425781 55.324219 " fill-opacity="1" fill-rule="nonzero"/>
    </g>
  </g>
  <g clip-path="url(#d1511a4b18)">
    <path fill="#40a546" d="M 130.074219 55.398438 L 146.179688 55.398438 L 146.179688 74.363281 L 130.074219 74.363281 Z M 130.074219 55.398438 " fill-opacity="1" fill-rule="nonzero"/>
  </g>
  <g clip-path="url(#96e77dad72)">
    <path fill="#40a546" d="M 130.074219 55.398438 L 146.179688 55.398438 L 146.179688 74.363281 L 130.074219 74.363281 Z M 130.074219 55.398438 " fill-opacity="1" fill-rule="nonzero"/>
  </g>
  <g clip-path="url(#702da5f41e)">
    <path fill="#40ae3b" d="M 150.925781 55.398438 L 164.488281 55.398438 L 164.488281 74.363281 L 150.925781 74.363281 Z M 150.925781 55.398438 " fill-opacity="1" fill-rule="nonzero"/>
  </g>
  <g clip-path="url(#5626f690c3)">
    <path fill="#40ae3b" d="M 150.925781 55.398438 L 164.488281 55.398438 L 164.488281 74.363281 L 150.925781 74.363281 Z M 150.925781 55.398438 " fill-opacity="1" fill-rule="nonzero"/>
  </g>
  <g clip-path="url(#4c6f1441a7)">
    <path fill="#41b730" d="M 168.613281 55.398438 L 182.195312 55.398438 L 182.195312 74.363281 L 168.613281 74.363281 Z M 168.613281 55.398438 " fill-opacity="1" fill-rule="nonzero"/>
  </g>
  <g clip-path="url(#d776557a64)">
    <path fill="#41b730" d="M 168.613281 55.398438 L 182.195312 55.398438 L 182.195312 74.363281 L 168.613281 74.363281 Z M 168.613281 55.398438 " fill-opacity="1" fill-rule="nonzero"/>
  </g>
</svg>