<?xml version="1.0" encoding="UTF-8"?>
<svg version="1.1" xmlns="http://www.w3.org/2000/svg" width="150" height="40">
<path d="M0 0 C2.41854446 -0.13536629 4.82949783 -0.23420279 7.25 -0.3125 C8.27287109 -0.3753418 8.27287109 -0.3753418 9.31640625 -0.43945312 C13.10103791 -0.53131312 14.66470743 -0.30796465 17.4921875 2.2890625 C19.52395906 5.94204038 19.04952793 8.02678713 18 12 C17.34 12.66 16.68 13.32 16 14 C16.99 14.99 17.98 15.98 19 17 C19.74056641 15.28490234 19.74056641 15.28490234 20.49609375 13.53515625 C21.14310512 12.044217 21.7902473 10.5533345 22.4375 9.0625 C22.76298828 8.30775391 23.08847656 7.55300781 23.42382812 6.77539062 C25.88671875 1.11328125 25.88671875 1.11328125 27 0 C29.33297433 -0.04092937 31.66705225 -0.04241723 34 0 C36.66666667 5.33333333 39.33333333 10.66666667 42 16 C42.33 15.46375 42.66 14.9275 43 14.375 C45 13 45 13 46.98046875 13.24609375 C49.00481529 13.76561631 51.0046053 14.37848362 53 15 C53 14.34 53 13.68 53 13 C52.37351563 12.89042969 51.74703125 12.78085937 51.1015625 12.66796875 C50.28429687 12.50941406 49.46703125 12.35085937 48.625 12.1875 C47.40683594 11.96126953 47.40683594 11.96126953 46.1640625 11.73046875 C44 11 44 11 42 8 C42.1875 4.9375 42.1875 4.9375 43 2 C46.52679099 -0.35119399 48.02879485 -0.21443452 52.1875 -0.125 C53.81751953 -0.09792969 53.81751953 -0.09792969 55.48046875 -0.0703125 C56.72763672 -0.03550781 56.72763672 -0.03550781 58 0 C59.125 3.75 59.125 3.75 58 6 C55.03 5.67 52.06 5.34 49 5 C49 5.66 49 6.32 49 7 C49.62648437 7.12117188 50.25296875 7.24234375 50.8984375 7.3671875 C51.71570313 7.53476562 52.53296875 7.70234375 53.375 7.875 C54.18710938 8.03742187 54.99921875 8.19984375 55.8359375 8.3671875 C58 9 58 9 60 11 C60.55668741 16.23286168 60.55668741 16.23286168 58.78588867 18.6730957 C56.4340317 20.42051096 55.02288705 20.34587067 52.11328125 20.29296875 C51.17548828 20.28330078 50.23769531 20.27363281 49.27148438 20.26367188 C47.80678711 20.2259668 47.80678711 20.2259668 46.3125 20.1875 C45.32443359 20.17396484 44.33636719 20.16042969 43.31835938 20.14648438 C40.87867383 20.11112661 38.43926837 20.05731962 36 20 C33.525 15.05 33.525 15.05 31 10 C27.7018576 14.1490712 27.7018576 14.1490712 25 20 C20.38 20 15.76 20 11 20 C10.34 18.35 9.68 16.7 9 15 C8.01 15 7.02 15 6 15 C6 16.65 6 18.3 6 20 C4.02 20 2.04 20 0 20 C0 16.7 0 13.4 0 10 C2.27864583 9.77213542 4.55729167 9.54427083 6.8359375 9.31640625 C9.04272805 9.10909886 9.04272805 9.10909886 11 8 C11 7.34 11 6.68 11 6 C7.37 5.67 3.74 5.34 0 5 C0 3.35 0 1.7 0 0 Z " fill="#00BF61" transform="translate(24,9)"/>
<path d="M0 0 C2.31 0 4.62 0 7 0 C7 2.31 7 4.62 7 7 C9.31 7 11.62 7 14 7 C14 4.69 14 2.38 14 0 C15.98 0 17.96 0 20 0 C20 6.6 20 13.2 20 20 C18.02 20 16.04 20 14 20 C14 17.36 14 14.72 14 12 C11.69 12 9.38 12 7 12 C7 14.64 7 17.28 7 20 C4.69 20 2.38 20 0 20 C0 13.4 0 6.8 0 0 Z " fill="#00BF61" transform="translate(86,9)"/>
<path d="M0 0 C6.27 0 12.54 0 19 0 C19 1.65 19 3.3 19 5 C17.02 5 15.04 5 13 5 C13 9.95 13 14.9 13 20 C11.02 20 9.04 20 7 20 C7 15.05 7 10.1 7 5 C4.69 5 2.38 5 0 5 C0 3.35 0 1.7 0 0 Z " fill="#00BE61" transform="translate(3,9)"/>
<path d="M0 0 C5.61 0 11.22 0 17 0 C17 1.65 17 3.3 17 5 C11.39 5 5.78 5 0 5 C0 3.35 0 1.7 0 0 Z " fill="#00BF61" transform="translate(109,25)"/>
<path d="M0 0 C5.61 0 11.22 0 17 0 C17 1.65 17 3.3 17 5 C11.39 5 5.78 5 0 5 C0 3.35 0 1.7 0 0 Z " fill="#00BE62" transform="translate(109,17)"/>
<path d="M0 0 C5.61 0 11.22 0 17 0 C17 1.65 17 3.3 17 5 C11.39 5 5.78 5 0 5 C0 3.35 0 1.7 0 0 Z " fill="#00BF61" transform="translate(109,9)"/>
<path d="M0 0 C5.28 0 10.56 0 16 0 C16 1.65 16 3.3 16 5 C10.72 5 5.44 5 0 5 C0 3.35 0 1.7 0 0 Z " fill="#00BE61" transform="translate(129,25)"/>
<path d="M0 0 C5.28 0 10.56 0 16 0 C16 1.65 16 3.3 16 5 C10.72 5 5.44 5 0 5 C0 3.35 0 1.7 0 0 Z " fill="#00BE62" transform="translate(129,17)"/>
<path d="M0 0 C5.28 0 10.56 0 16 0 C16 1.65 16 3.3 16 5 C10.72 5 5.44 5 0 5 C0 3.35 0 1.7 0 0 Z " fill="#00BE61" transform="translate(129,9)"/>
</svg>
